<?xml version="1.0" encoding="UTF-8" standalone="no"?>
<!DOCTYPE svg PUBLIC "-//W3C//DTD SVG 1.1//EN" "http://www.w3.org/Graphics/SVG/1.1/DTD/svg11.dtd">
<svg xmlns="http://www.w3.org/2000/svg" xmlns:xlink="http://www.w3.org/1999/xlink" version="1.1" width="1041.6666pt" height="1041.6666pt" viewBox="0 0 1041.6666 1041.6666">
<g enable-background="new">
<clipPath id="cp0">
<path transform="matrix(.6666666,0,0,.6666666,0,0)" d="M 0 0 L 1562.5 0 L 1562.5 1562.5 L 0 1562.5 Z " fill-rule="evenodd"/>
</clipPath>
<g clip-path="url(#cp0)">
<path transform="matrix(2.0833333,0,0,2.0833333,0,0)" d="M 0 0 L 500 0 L 500 500 L 0 500 Z " fill="#ffffff"/>
</g>
<clipPath id="cp1">
<path transform="matrix(.6666666,0,0,.6666666,0,0)" d="M 0 0 L 1562.5 0 L 1562.5 1562.5 L 0 1562.5 Z " fill-rule="evenodd"/>
</clipPath>
<g clip-path="url(#cp1)">
<path transform="matrix(2.0833333,0,0,2.0833333,0,0)" d="M 0 0 L 500 0 L 500 500 L 0 500 Z " fill="#ffffff"/>
</g>
<clipPath id="cp2">
<path transform="matrix(.6666666,0,0,.6666666,0,0)" d="M 0 0 L 1562.5 0 L 1562.5 1562.5 L 0 1562.5 Z "/>
</clipPath>
<g clip-path="url(#cp2)">
<clipPath id="cp3">
<path transform="matrix(.6666666,0,0,.6666666,0,0)" d="M 0 0 L 1562.5 0 L 1562.5 1562.5 L 0 1562.5 Z "/>
</clipPath>
<g clip-path="url(#cp3)">
<clipPath id="cp4">
<path transform="matrix(.6666666,0,0,.6666666,0,0)" d="M 260.77223 260.77223 L 1301.3972 260.77223 L 1301.3972 1301.3972 L 260.77223 1301.3972 Z "/>
</clipPath>
<g clip-path="url(#cp4)">
<clipPath id="cp5">
<path transform="matrix(.6666666,0,0,.6666666,0,0)" d="M 260.77223 260.77223 L 1301.6902 260.77223 L 1301.6902 1301.6902 L 260.77223 1301.6902 Z "/>
</clipPath>
<g clip-path="url(#cp5)">
<clipPath id="cp6">
<path transform="matrix(.6666666,0,0,.6666666,0,0)" d="M 781.2312 260.77223 C 493.78965 260.77223 260.77223 493.78965 260.77223 781.2312 C 260.77223 1068.6727 493.78965 1301.6902 781.2312 1301.6902 C 1068.6727 1301.6902 1301.6902 1068.6727 1301.6902 781.2312 C 1301.6902 493.78965 1068.6727 260.77223 781.2312 260.77223 Z "/>
</clipPath>
<g clip-path="url(#cp6)">
<path transform="matrix(2.0833333,0,0,2.0833333,173.84813,173.84813)" stroke-width="8" stroke-linecap="butt" stroke-miterlimit="4" stroke-linejoin="miter" fill="none" stroke="#000000" d="M 166.54688 0 C 74.565578 0 0 74.565578 0 166.54688 C 0 258.52818 74.565578 333.09376 166.54688 333.09376 C 258.52818 333.09376 333.09376 258.52818 333.09376 166.54688 C 333.09376 74.565578 258.52818 0 166.54688 0 Z "/>
</g>
</g>
</g>
</g>
</g>
<clipPath id="cp7">
<path transform="matrix(.6666666,0,0,.6666666,0,0)" d="M 0 0 L 1562.5 0 L 1562.5 1562.5 L 0 1562.5 Z " fill-rule="evenodd"/>
</clipPath>
<g clip-path="url(#cp7)">
<g id="Layer-1" data-name="P">
<g id="Layer-2" data-name="P">
</g>
<symbol id="font_8_77">
<path d="M .14453125 0 L 0 0 L .21142578 .3671875 L .010253906 .7138672 L .16015625 .7138672 L .30810548 .4580078 L .3203125 .4580078 L .47070313 .7138672 L .61328127 .7138672 L .41210938 .3671875 L .62353518 0 L .4741211 0 L .3154297 .27539063 L .30322267 .27539063 L .14453125 0 Z "/>
</symbol>
<use xlink:href="#font_8_77" transform="matrix(266.59065,0,0,-266.59065,328.71208,539.8283)"/>
</g>
<g id="Layer-1" data-name="P">
<g id="Layer-2" data-name="P">
</g>
<symbol id="font_8_48">
<path d="M .3330078 0 C .26757813 0 .20979817 .0133463549 .15966797 .040039064 C .10986328 .06673177 .07080078 .107421878 .04248047 .16210938 C .014160156 .21712239 0 .28548179 0 .3671875 C 0 .44889323 .014160156 .51708987 .04248047 .57177737 C .07080078 .62679037 .10986328 .66764327 .15966797 .69433596 C .20979817 .7210286 .26757813 .734375 .3330078 .734375 C .3984375 .734375 .4560547 .7210286 .5058594 .69433596 C .55566409 .66796877 .5945638 .6272786 .6225586 .5722656 C .6508789 .5172526 .66503909 .44889323 .66503909 .3671875 C .66503909 .28548179 .6508789 .21712239 .6225586 .16210938 C .5945638 .10709635 .55566409 .06624349 .5058594 .03955078 C .4560547 .013183594 .3984375 0 .3330078 0 M .3330078 .122558597 C .3935547 .122558597 .43977867 .14192708 .4716797 .18066406 C .50358077 .21972656 .51953127 .28190104 .51953127 .3671875 C .51953127 .45247398 .50358077 .51464846 .4716797 .55371096 C .43977867 .59277346 .3935547 .6123047 .3330078 .6123047 C .2721354 .6123047 .22558594 .59277346 .19335938 .55371096 C .16145833 .51464846 .14550781 .45247398 .14550781 .3671875 C .14550781 .28190104 .16145833 .21972656 .19335938 .18066406 C .22558594 .14192708 .2721354 .122558597 .3330078 .122558597 Z "/>
</symbol>
<use xlink:href="#font_8_48" transform="matrix(235.00003,0,0,-235.00003,558.3539,530.1534)"/>
</g>
<g id="Layer-1" data-name="P">
<g id="Layer-2" data-name="P">
</g>
<symbol id="font_9_1b9">
<path d="M .1430664 0 C .100097659 .054036458 .06542969 .114746097 .0390625 .1821289 C .013020833 .24983724 0 .3318685 0 .42822267 C 0 .52490237 .013020833 .6069336 .0390625 .6743164 C .06542969 .7416992 .100097659 .8025716 .1430664 .8569336 L .19726563 .8569336 L .19921875 .8466797 C .1751302 .8072917 .15462239 .7679036 .13769531 .7285156 C .12109375 .6894531 .10758463 .64485678 .09716797 .59472659 C .08707682 .5449219 .08203125 .48942057 .08203125 .42822267 C .08203125 .36702476 .08707682 .31152345 .09716797 .26171876 C .10758463 .21191406 .12109375 .1673177 .13769531 .12792969 C .15462239 .08886719 .1751302 .049641927 .19921875 .010253906 L .19726563 0 L .1430664 0 Z "/>
</symbol>
<use xlink:href="#font_9_1b9" transform="matrix(0,-508.3395,-508.3395,-0,748.55368,719.0856)"/>
</g>
<g id="Layer-1" data-name="P">
<g id="Layer-2" data-name="P">
</g>
<symbol id="font_8_1d0">
<path d="M .42871095 0 C .3408203 0 .26464845 .017252604 .20019531 .051757814 C .13574219 .0859375 .08626302 .13541667 .051757814 .20019531 C .017252604 .26497398 0 .34228517 0 .4321289 C 0 .5164388 .017578125 .5914714 .052734376 .65722659 C .087890628 .72298178 .13850911 .7742513 .20458985 .81103518 C .27067057 .84814456 .34847007 .8666992 .43798829 .8666992 C .52685549 .8666992 .60270187 .8499349 .66552737 .81640627 C .72835287 .7828776 .7760417 .73535159 .80859377 .6738281 C .8411458 .6123047 .8574219 .54020187 .8574219 .45751954 C .8574219 .4070638 .8496094 .36279298 .8339844 .32470704 C .8186849 .2866211 .7965495 .25716148 .7675781 .23632813 C .7389323 .2154948 .7054036 .20507813 .6669922 .20507813 C .59765627 .20507813 .5522461 .23063152 .5307617 .28173829 L .5214844 .28173829 C .50846359 .2553711 .49121095 .23600261 .46972657 .22363281 C .44856773 .21126302 .42220054 .20507813 .390625 .20507813 C .35416667 .20507813 .32242839 .21354167 .29541017 .23046875 C .26839195 .24772136 .24739583 .27311198 .23242188 .30664063 C .21744792 .34049479 .20996094 .3815104 .20996094 .4296875 C .20996094 .47721354 .21761067 .5179036 .23291016 .5517578 C .24820964 .585612 .2693685 .61116537 .29638673 .62841799 C .32340495 .6459961 .35432945 .65478518 .38916017 .65478518 C .41617839 .65478518 .4386393 .64990237 .45654298 .6401367 C .47444663 .6306966 .48990885 .61539718 .5029297 .5942383 L .51220706 .5957031 L .51220706 .6464844 L .63427737 .6464844 L .63427737 .35888673 C .63427737 .3194987 .648763 .2998047 .6777344 .2998047 C .6985677 .2998047 .71533206 .31233726 .72802737 .33740235 C .74104818 .36279298 .7475586 .40283204 .7475586 .45751954 C .7475586 .5555013 .72184249 .6311849 .67041018 .6845703 C .6193034 .73795577 .5418294 .76464846 .43798829 .76464846 C .3738607 .76464846 .3173828 .75113937 .2685547 .7241211 C .22005208 .6974284 .18245442 .6590169 .15576172 .6088867 C .12906902 .55875656 .115722659 .49983726 .115722659 .4321289 C .115722659 .3227539 .14274089 .24055989 .19677735 .18554688 C .2508138 .13053386 .328125 .103027347 .42871095 .103027347 C .46191407 .103027347 .49267579 .10644531 .5209961 .11328125 C .5496419 .119791667 .57438156 .12890625 .59521487 .140625 L .6044922 .140625 L .63671877 .052246095 C .62565109 .04313151 .609375 .03466797 .5878906 .026855469 C .56640627 .018717448 .5416667 .012207031 .5136719 .0073242189 C .4860026 .0024414063 .45768229 0 .42871095 0 M .42382813 .30859376 C .45117188 .30859376 .47233073 .31852214 .4873047 .3383789 C .5026042 .3582357 .5102539 .38867188 .5102539 .4296875 C .5102539 .47070313 .5026042 .50113937 .4873047 .5209961 C .47200523 .54085287 .45084635 .55078127 .42382813 .55078127 C .39518229 .55078127 .37353517 .5411784 .35888673 .52197268 C .3445638 .50309249 .33740235 .47233073 .33740235 .4296875 C .33740235 .38704429 .3445638 .35611979 .35888673 .33691407 C .37353517 .31803385 .39518229 .30859376 .42382813 .30859376 Z "/>
</symbol>
<use xlink:href="#font_8_1d0" transform="matrix(55.18662,0,0,-55.18662,613.0871,467.3925)"/>
</g>
</g>
<g id="Layer-1" data-name="Image">
<path transform="matrix(2.7777777,0,0,-2.7777777,0,1063.9999)" d="M 62.585336 70.62532 L 312.41468 70.62532 L 312.41468 320.45466 L 62.585336 320.45466 Z " fill-opacity="0"/>
</g>
</g>
</svg>
